<svg width="24" height="25" viewBox="0 0 24 25" fill="none" xmlns="http://www.w3.org/2000/svg">
<path d="M0 3.5C0 1.84315 1.34315 0.5 3 0.5H21C22.6569 0.5 24 1.84315 24 3.5V21.5C24 23.1569 22.6569 24.5 21 24.5H3C1.34315 24.5 0 23.1569 0 21.5V3.5Z" fill="#1B438C"/>
<path d="M14 10.5L15.5583 6.13688C15.8743 5.25199 17.1257 5.25199 17.4417 6.13688L19 10.5" stroke="white" stroke-width="1.1" stroke-linecap="round"/>
<path d="M9.99988 9.78644C9.44931 10.3249 8.01785 11.0788 6.69651 9.78644C5.37516 8.49411 6.26093 6.65861 6.69651 6.23253C7.88168 5.0732 9.20719 5.45713 10 6.23253" stroke="white" stroke-width="1.1" stroke-linecap="round"/>
<path d="M14.7055 14.7C14.3466 16.3666 14.2031 19.7 16.5 19.7C18.797 19.7 18.6534 16.3666 18.2944 14.7" stroke="white" stroke-width="1.1" stroke-linecap="round"/>
<path d="M8.19995 14L6.15114 16.3415C5.58538 16.9881 6.04456 18 6.90372 18H8.69995C9.25224 18 9.69995 17.5523 9.69995 17V15.8V20" stroke="#ED1C25" stroke-width="1.1" stroke-linecap="round"/>
</svg>
