<svg width="81" height="25" viewBox="0 0 81 25" fill="none" xmlns="http://www.w3.org/2000/svg">
<path d="M64.3913 2.69995C63.0096 9.29995 62.4568 22.5 71.3002 22.5C80.1437 22.5 79.5906 9.29995 78.2087 2.69995" stroke="#1B438C" stroke-width="4" stroke-linecap="round"/>
<path d="M53.04 2.69995L44.9015 14.3265C44.4375 14.9893 44.9117 15.9 45.7207 15.9H56C56.5523 15.9 57 15.4522 57 14.9V8.64011V22.5" stroke="#ED1C25" stroke-width="4" stroke-linecap="round"/>
<path d="M24 22.5L31.3137 2.99688C31.6381 2.13171 32.8619 2.13171 33.1863 2.99688L40.5 22.5" stroke="#1B438C" stroke-width="4" stroke-linecap="round"/>
<path d="M18.4995 19.6742C16.2284 21.8066 10.3236 24.7919 4.87309 19.6742C-0.577469 14.5566 3.07635 7.28804 4.87309 5.60078C9.76193 1.00982 15.2297 2.5302 18.5 5.60078" stroke="#1B438C" stroke-width="4" stroke-linecap="round"/>
</svg>
