<svg width="26" height="27" viewBox="0 0 26 27" fill="none" xmlns="http://www.w3.org/2000/svg">
<path fill-rule="evenodd" clip-rule="evenodd" d="M13 0.5C5.8201 0.5 0 6.3201 0 13.5C0 20.6799 5.8201 26.5 13 26.5C20.1799 26.5 26 20.6799 26 13.5C26 6.3201 20.1799 0.5 13 0.5ZM8.45 10.25C8.45 9.65248 8.56769 9.06082 8.79635 8.50879C9.02501 7.95676 9.36016 7.45517 9.78266 7.03266C10.2052 6.61016 10.7068 6.27501 11.2588 6.04635C11.8108 5.81769 12.4025 5.7 13 5.7C13.5975 5.7 14.1892 5.81769 14.7412 6.04635C15.2932 6.27501 15.7948 6.61016 16.2173 7.03266C16.6398 7.45517 16.975 7.95676 17.2037 8.50879C17.4323 9.06082 17.55 9.65248 17.55 10.25C17.55 11.4567 17.0706 12.614 16.2173 13.4673C15.364 14.3206 14.2067 14.8 13 14.8C11.7933 14.8 10.636 14.3206 9.78266 13.4673C8.92937 12.614 8.45 11.4567 8.45 10.25ZM21.1354 19.9792C20.1619 21.203 18.9248 22.1911 17.5161 22.87C16.1075 23.5489 14.5637 23.901 13 23.9C11.4363 23.901 9.89254 23.5489 8.48389 22.87C7.07524 22.1911 5.83805 21.203 4.8646 19.9792C6.9719 18.4673 9.8475 17.4 13 17.4C16.1525 17.4 19.0281 18.4673 21.1354 19.9792Z" fill="#1B438C"/>
</svg>
