<svg width="12" height="11" viewBox="0 0 12 11" fill="none" xmlns="http://www.w3.org/2000/svg">
<path fill-rule="evenodd" clip-rule="evenodd" d="M8.71413 7.51198C9.46204 6.57615 9.81452 5.39895 9.69987 4.21984C9.58521 3.04074 9.01203 1.94832 8.09693 1.16482C7.18182 0.381321 5.99355 -0.0344006 4.77383 0.00223039C3.55412 0.0388614 2.3946 0.525093 1.53116 1.36201C0.666972 2.1995 0.164341 3.32529 0.125696 4.50997C0.0870513 5.69464 0.515301 6.84904 1.32318 7.73791C2.13105 8.62678 3.25775 9.18323 4.47367 9.29386C5.68958 9.40449 6.90321 9.06098 7.86724 8.33333L7.89303 8.35952L10.4373 10.8294C10.493 10.8835 10.5592 10.9264 10.632 10.9557C10.7048 10.9849 10.7828 11 10.8616 11C10.9404 11 11.0185 10.9849 11.0913 10.9557C11.1641 10.9264 11.2303 10.8835 11.286 10.8294C11.3417 10.7753 11.3859 10.7111 11.4161 10.6405C11.4462 10.5698 11.4618 10.4941 11.4618 10.4176C11.4618 10.3411 11.4462 10.2653 11.4161 10.1947C11.3859 10.124 11.3417 10.0598 11.286 10.0057L8.74112 7.53643C8.73235 7.52804 8.72335 7.51988 8.71413 7.51198ZM7.46898 2.18569C7.80762 2.50904 8.07694 2.89426 8.26141 3.31913C8.44588 3.74401 8.54186 4.20012 8.54379 4.66117C8.54572 5.12222 8.45358 5.57908 8.27268 6.0054C8.09178 6.43172 7.8257 6.81905 7.48979 7.14507C7.15388 7.47108 6.75478 7.72932 6.31552 7.90489C5.87626 8.08046 5.40553 8.16989 4.93049 8.16801C4.45544 8.16614 3.98548 8.07299 3.5477 7.89396C3.10993 7.71492 2.71302 7.45353 2.37985 7.12487C1.71405 6.46808 1.34262 5.58255 1.34649 4.66117C1.35036 3.7398 1.7292 2.85723 2.40049 2.20572C3.07178 1.55421 3.98114 1.18653 4.93049 1.18278C5.87983 1.17902 6.79224 1.5395 7.46898 2.18569Z" fill="#959595"/>
</svg>
