<svg width="34" height="33" viewBox="0 0 34 33" fill="none" xmlns="http://www.w3.org/2000/svg">
<path d="M30.9012 0.0954123L10.2781 6.18594C9.85951 6.31745 9.49372 6.57906 9.23396 6.93273C8.97421 7.2864 8.834 7.7137 8.83374 8.15252V25.0022C8.15837 24.8383 7.46621 24.7535 6.77124 24.7495C3.35522 24.7495 0.58374 26.5969 0.58374 28.8748C0.58374 31.1527 3.35522 33 6.77124 33C10.1873 33 12.9587 31.1527 12.9587 28.8748V13.8125L29.4587 8.97821V20.8776C28.7835 20.7131 28.0913 20.6281 27.3962 20.6243C23.9802 20.6243 21.2087 22.4716 21.2087 24.7495C21.2087 27.0274 23.9802 28.8748 27.3962 28.8748C30.8123 28.8748 33.5837 27.0281 33.5837 24.7495V2.0607C33.5834 1.7369 33.5069 1.41771 33.3603 1.12898C33.2138 0.840244 33.0013 0.590075 32.7401 0.398716C32.4789 0.207357 32.1763 0.0801854 31.8569 0.0274931C31.5374 -0.0251992 31.21 -0.00193182 30.9012 0.0954123Z" fill="#59921F"/>
</svg>
