<svg width="33" height="33" viewBox="0 0 33 33" fill="none" xmlns="http://www.w3.org/2000/svg">
<path d="M3.14286 14.85C1.41429 14.85 0 16.335 0 18.15V29.7C0 31.515 1.41429 33 3.14286 33C4.87143 33 6.28571 31.515 6.28571 29.7V18.15C6.28571 16.335 4.87143 14.85 3.14286 14.85ZM14.1429 5.445C14.1429 2.3925 16.4214 0 19.3286 0C20.9629 0 22.55 0.8085 23.5714 2.0625C24.5929 0.8085 26.18 0 27.8143 0C30.7214 0 33 2.3925 33 5.445C33 8.91 29.0714 12.8865 24.6243 17.1435C24.3346 17.4218 23.9562 17.5761 23.5636 17.5761C23.1709 17.5761 22.7925 17.4218 22.5029 17.1435C18.0714 12.8865 14.1429 8.91 14.1429 5.445ZM29.8414 24.75H19.1086C18.9315 24.7492 18.756 24.7157 18.59 24.651L16.28 23.8095C16.1836 23.7744 16.0948 23.7195 16.0188 23.6481C15.9428 23.5766 15.8811 23.49 15.8372 23.3933C15.7934 23.2966 15.7682 23.1917 15.7633 23.0847C15.7584 22.9777 15.7738 22.8707 15.8086 22.77C15.95 22.341 16.4057 22.11 16.8143 22.275L18.5743 22.9845C18.7471 23.0505 18.9514 23.1 19.14 23.1H23.2729C24.2943 23.1 25.1271 22.2255 25.1271 21.153C25.1271 20.3445 24.64 19.6185 23.9171 19.3215L13.0429 15.0645C12.6971 14.916 12.32 14.85 11.9429 14.85H9.42857V29.733L19.4386 32.7195C20.0829 32.9175 20.7743 32.8845 21.4029 32.637L33 28.05C33 26.2185 31.5857 24.75 29.8414 24.75Z" fill="#ED1C25"/>
</svg>
