<svg width="34" height="33" viewBox="0 0 34 33" fill="none" xmlns="http://www.w3.org/2000/svg">
<path d="M33.5837 16.5C33.5837 25.6127 26.1964 33 17.0837 33C7.97104 33 0.58374 25.6127 0.58374 16.5C0.58374 7.3873 7.97104 0 17.0837 0C26.1964 0 33.5837 7.3873 33.5837 16.5Z" fill="#FFEDD2"/>
<path fill-rule="evenodd" clip-rule="evenodd" d="M3.72583 6.77275C1.67842 9.59863 0.578151 13.0044 0.583762 16.4988C0.578477 19.9931 1.67872 23.3989 3.72583 26.2249C5.27224 25.1799 6.52087 23.7485 7.34875 22.0718C8.21092 20.3419 8.65736 18.4332 8.65225 16.4988C8.65666 14.5645 8.21026 12.656 7.34875 10.9259C6.52087 9.2491 5.27224 7.81774 3.72583 6.77275ZM5.67283 4.53173C7.49804 5.8395 8.97592 7.57673 9.97696 9.59118C11.0447 11.7091 11.5987 14.0874 11.5987 16.4988C11.6039 18.8978 11.0485 21.2646 9.97696 23.4088C8.9756 25.4224 7.49775 27.1588 5.67283 28.4659C8.37483 31.0684 11.8806 32.6671 15.6105 32.9976V0C11.7684 0.340767 8.3034 2.00437 5.67283 4.53173ZM18.557 33C22.2871 32.6688 25.793 31.0692 28.4947 28.4659C26.6694 27.1581 25.1916 25.4209 24.1905 23.4065C23.1194 21.2629 22.5639 18.897 22.5688 16.4988C22.5688 14.085 23.1227 11.7091 24.1905 9.58881C25.1912 7.57549 26.6682 5.83913 28.4923 4.53173C25.7915 1.93025 22.2875 0.331625 18.5593 0V32.9976L18.557 33ZM33.5837 16.4988C33.5893 19.9932 32.4891 23.399 30.4417 26.2249C28.8952 25.1799 27.6466 23.7485 26.8187 22.0718C25.9566 20.3419 25.5101 18.4332 25.5152 16.4988C25.5152 14.5394 25.9654 12.6179 26.8187 10.9259C27.6466 9.2491 28.8952 7.81774 30.4417 6.77275C32.4891 9.59863 33.5893 13.0044 33.5837 16.4988Z" fill="#FF9900"/>
</svg>
