<svg width="33" height="25" viewBox="0 0 33 25" fill="none" xmlns="http://www.w3.org/2000/svg">
<path d="M21.9998 12.1224C20.5863 12.1224 19.2196 11.4901 18.1498 10.3426C17.1096 9.22338 16.4744 7.73081 16.3623 6.14112C16.2427 4.44535 16.759 2.88597 17.8157 1.74949C18.8724 0.61301 20.3498 0 21.9998 0C23.6381 0 25.1197 0.62403 26.1729 1.75775C27.2365 2.9025 27.7542 4.45913 27.6345 6.14043C27.5197 7.73218 26.8852 9.22407 25.847 10.342C24.78 11.4901 23.414 12.1224 21.9998 12.1224ZM31.0631 24.2449H12.9372C12.6458 24.2464 12.3579 24.181 12.0957 24.0536C11.8335 23.9262 11.6039 23.7402 11.4247 23.5099C11.2346 23.2604 11.1034 22.9709 11.0407 22.6633C10.9781 22.3557 10.9858 22.0378 11.0631 21.7336C11.642 19.4049 13.0761 17.4735 15.2101 16.149C17.1041 14.974 19.5152 14.3265 21.9998 14.3265C24.5332 14.3265 26.881 14.9464 28.7861 16.1208C30.9249 17.4384 32.3611 19.3807 32.9372 21.7377C33.0136 22.0422 33.0204 22.36 32.9571 22.6675C32.8937 22.9749 32.7619 23.2641 32.5714 23.5134C32.3924 23.7426 32.1634 23.9276 31.9019 24.0544C31.6405 24.1812 31.3535 24.2464 31.0631 24.2449ZM9.00612 12.3979C6.58682 12.3979 4.45971 10.1443 4.2624 7.37471C4.16478 5.95584 4.60615 4.64372 5.49989 3.6815C6.38401 2.72893 7.63113 2.20408 9.00612 2.20408C10.3811 2.20408 11.6186 2.73168 12.5075 3.68977C13.4082 4.65956 13.8482 5.96892 13.745 7.37609C13.5477 10.145 11.4213 12.3979 9.00612 12.3979ZM13.5202 14.5641C12.3109 13.9718 10.7414 13.6756 9.00681 13.6756C6.98145 13.6756 5.01452 14.2046 3.46765 15.1648C1.71385 16.2551 0.534106 17.8427 0.0576715 19.7596C-0.0120509 20.0353 -0.0186454 20.3232 0.0383813 20.6018C0.095408 20.8805 0.21458 21.1426 0.386982 21.3685C0.55057 21.5789 0.760145 21.749 0.999587 21.8655C1.23903 21.982 1.50196 22.042 1.76816 22.0408H9.39937C9.52817 22.0408 9.65288 21.9955 9.75176 21.9128C9.85064 21.8301 9.91741 21.7152 9.94043 21.5883C9.94799 21.5449 9.95762 21.5015 9.96862 21.4588C10.5516 19.1128 11.9177 17.1305 13.9362 15.6855C14.0104 15.6319 14.0701 15.5605 14.1099 15.478C14.1497 15.3954 14.1682 15.3042 14.1639 15.2126C14.1596 15.121 14.1326 15.0319 14.0853 14.9535C14.0379 14.875 13.9718 14.8096 13.8928 14.7632C13.7849 14.6998 13.6612 14.633 13.5202 14.5641Z" fill="#8548D4"/>
</svg>
