<svg width="32" height="33" viewBox="0 0 32 33" fill="none" xmlns="http://www.w3.org/2000/svg">
<path d="M30.3818 6.31713L22.0783 0.943203C21.8022 0.764498 21.4878 0.63768 21.1529 0.569992C20.8181 0.502304 20.4694 0.495071 20.1268 0.548707C19.7843 0.602343 19.4545 0.715797 19.1564 0.88259C18.8582 1.04938 18.5976 1.26625 18.3893 1.5208L1.10228 22.644C0.892817 22.8979 0.740177 23.185 0.653239 23.4885C0.5663 23.7921 0.546798 24.1061 0.595864 24.4123L1.61581 30.9266C1.71265 31.5452 2.08033 32.0954 2.63795 32.4562C3.19558 32.817 3.89747 32.9588 4.58922 32.8505L11.8744 31.7099C12.2172 31.6572 12.5473 31.5442 12.8454 31.3772C13.1435 31.2103 13.4038 30.9929 13.6111 30.7376L30.8983 9.61583C31.1067 9.36132 31.2586 9.0741 31.3454 8.77057C31.4322 8.46705 31.4522 8.15316 31.4042 7.84684C31.3563 7.54051 31.2413 7.24776 31.0659 6.98529C30.8904 6.72282 30.658 6.49578 30.3818 6.31713ZM3.66816 23.437L16.3346 7.96095L19.4346 9.96807L6.76958 25.4424L3.66816 23.437ZM3.56928 26.3362L8.90099 29.786L5.4917 30.4281L4.7367 29.786L3.66816 28.9334L3.56928 26.3362ZM11.9733 28.8107L8.87164 26.8038L21.5381 11.3278L24.6381 13.3349L11.9733 28.8107Z" fill="#1B438C"/>
</svg>
